<svg id="Capa_1" enable-background="new 0 0 508.001 508.001" height="512" viewBox="0 0 508.001 508.001" width="512" xmlns="http://www.w3.org/2000/svg"><g><path d="m101.097 181.302-35.444-88.397 92.782 21.697 12.995-94.396 69.503 65.182 58.451-75.252 27.602 91.201 88.246-35.944-21.697 92.782 94.395 12.995-65.182 69.503 75.252 58.451-91.096 27.569 35.444 88.398-92.782-21.697-12.995 94.395-69.503-65.181-58.452 75.251-27.601-91.2-88.246 35.944 21.697-92.782-94.395-12.995 65.182-69.503-75.253-58.452z" fill="#ffea60"/><path d="m212.242 107.853c0 5.526-4.479 10.005-10.005 10.005s-10.005-4.479-10.005-10.005 4.479-10.005 10.005-10.005 10.005 4.479 10.005 10.005zm295.591 193.094c-.681 3.677-3.357 6.666-6.936 7.749l-80.649 24.407 31.382 78.266c1.388 3.461.734 7.408-1.695 10.237-2.43 2.829-6.231 4.071-9.863 3.222l-82.096-19.198-11.498 83.523c-.51 3.704-3.044 6.814-6.569 8.063-3.525 1.248-7.451.426-10.179-2.132l-61.498-57.674-51.719 66.584c-1.914 2.465-5.385 4.488-9.72 3.698-3.679-.67-6.666-3.357-7.749-6.936l-24.422-80.696-78.081 31.804c-3.463 1.411-7.424.771-10.267-1.657s-4.094-6.24-3.243-9.881l19.198-82.096-83.523-11.498c-3.704-.51-6.814-3.044-8.062-6.569-1.249-3.524-.426-7.451 2.132-10.179l57.674-61.498-66.584-51.717c-2.953-2.293-4.38-6.043-3.698-9.72.681-3.677 3.357-6.666 6.936-7.749l80.649-24.407-31.382-78.266c-1.388-3.461-.734-7.408 1.695-10.237 2.43-2.829 6.232-4.071 9.863-3.222l82.096 19.198 11.498-83.523c.51-3.704 3.044-6.814 6.569-8.063s7.451-.426 10.179 2.132l61.498 57.674 51.719-66.584c2.293-2.954 6.042-4.381 9.72-3.698 3.677.681 6.666 3.357 7.749 6.936l24.422 80.696 78.081-31.804c3.462-1.411 7.423-.771 10.267 1.657 2.843 2.428 4.094 6.24 3.243 9.881l-19.198 82.096 83.523 11.498c3.704.51 6.814 3.044 8.063 6.569 1.249 3.524.426 7.451-2.132 10.179l-57.674 61.498 66.584 51.719c2.952 2.291 4.378 6.041 3.697 9.718zm-112.678-132.455c5.709 9.447 10.55 19.61 14.38 30.422 3.833 10.823 6.469 21.779 7.977 32.724l49.893-53.2zm5.935-86.542-67.517 27.501c19.539 10.747 36.954 25.455 50.916 43.49zm-150.289 7.034c22.77-.444 45.119 3.873 65.726 12.319l-21.112-69.756zm-80.095 34.274c2.767 4.029 2.946 9.816-2.218 13.592-50.467 36.808-73.088 103.662-51.169 165.555 26.734 75.487 109.601 115.009 185.088 88.275s115.009-109.601 88.275-185.088c-21.922-61.897-81.584-99.613-143.973-96.448-6.5.319-10.061-4.276-10.457-9.14-.149-1.829-1.256-6.474-2.16-7.321l-55.394-51.95-10.356 75.233c-.191 1.384 1.393 5.879 2.364 7.292zm-61.449 51.526c10.749-19.656 25.499-37.177 43.609-51.215l-70.782-16.552zm-20.263 82.783c-.497-22.806 3.785-45.199 12.21-65.849l-69.793 21.122zm23.852 81.936c-5.709-9.447-10.551-19.61-14.38-30.422-3.833-10.823-6.469-21.779-7.977-32.724l-49.893 53.2zm-5.935 86.542 67.517-27.501c-19.538-10.747-36.953-25.455-50.916-43.49zm150.288-7.034c-22.77.444-45.119-3.873-65.726-12.319l21.112 69.757zm82.005-23.677c-9.361 5.63-19.423 10.409-30.12 14.198-10.855 3.844-21.844 6.484-32.821 7.99l53.04 49.742zm59.539-62.122c-10.748 19.656-25.499 37.177-43.609 51.214l70.781 16.552zm77.847-38.056-57.584-44.728c.497 22.807-3.784 45.199-12.21 65.849z"/></g></svg>