<svg id="Capa_1" enable-background="new 0 0 508 508" height="512" viewBox="0 0 508 508" width="512" xmlns="http://www.w3.org/2000/svg"><g><path d="m243.28 10c0-5.51 4.49-10 10.01-10 5.51 0 9.99 4.49 9.99 10s-4.48 10-9.99 10c-5.52 0-10.01-4.49-10.01-10zm105.72-10h-50.357c-5.317 0-9.968 3.999-10.329 9.304-.397 5.822 4.225 10.696 9.976 10.696h50.71c8.81.02 15.98 7.19 16 16v436c-.02 8.81-7.19 15.98-16 16h-190c-8.81-.02-15.98-7.19-16-16v-436c.02-8.81 7.19-15.98 16-16h49.29c5.74 0 10.373-4.872 9.976-10.694-.361-5.306-5.016-9.306-10.334-9.306h-48.932c-19.882 0-36 16.118-36 36v436c0 19.882 16.118 36 36 36h190c19.882 0 36-16.118 36-36v-436c0-19.882-16.118-36-36-36zm-125 217v-147c0-16.542 13.458-30 30-30 9.794 0 18.507 4.718 23.985 12h36.015c5.523 0 10 4.477 10 10s-4.477 10-10 10h-30v35h30c5.523 0 10 4.477 10 10s-4.477 10-10 10h-30v35h30c5.523 0 10 4.477 10 10s-4.477 10-10 10h-30v35h30c5.523 0 10 4.477 10 10s-4.477 10-10 10h-30v150.129c10.106 8.688 16 21.361 16 34.871 0 25.364-20.636 46-46 46s-46-20.636-46-46c0-7.042 1.602-13.858 4.568-20h-18.568c-5.523 0-10-4.477-10-10s4.477-10 10-10h30v-35h-30c-5.523 0-10-4.477-10-10s4.477-10 10-10h30v-35h-30c-5.523 0-10-4.477-10-10s4.477-10 10-10h30v-35h-30c-5.523 0-10-4.477-10-10s4.477-10 10-10zm40 175.066v-155.066h-20v155.066c0 3.336-1.664 6.454-4.437 8.31-7.24 4.847-11.563 12.931-11.563 21.624 0 14.336 11.664 26 26 26s26-11.664 26-26c0-8.693-4.323-16.777-11.563-21.624-2.772-1.856-4.437-4.973-4.437-8.31zm-20-175.066h20v-147c0-5.514-4.486-10-10-10s-10 4.486-10 10z"/></g></svg>