<svg id="Capa_1" enable-background="new 0 0 508 508" height="512" viewBox="0 0 508 508" width="512" xmlns="http://www.w3.org/2000/svg"><g><path d="m508 110.218c0-60.654-49.346-110-110-110-25.082 0-49.619 8.666-69.092 24.402-15.824 12.787-27.82 29.799-34.586 48.792-9.393-3.991-19.53-6.065-29.881-6.065-14.999 0-29.003 4.343-40.819 11.837-14.653-5.289-30.031-7.966-45.79-7.966-74.439 0-135 60.561-135 135 0 7.39.6 14.753 1.787 22-25.468 5.783-44.619 28.714-44.619 55.798 0 31.542 25.661 57.203 57.203 57.203h185.907l-31.771 154.507c-2.281 11.096 12.735 16.835 18.436 7.048l94.103-161.555h20.911c51.304 0 93.042-41.738 93.042-93.042 0-11.383-2.098-22.678-6.128-33.239 44.22-14.266 76.297-55.817 76.297-104.72zm-252.625 211h-98.005l7.36-24.95c3.765-12.738-15.415-18.408-19.18-5.67v.01l-9.026 30.61h-79.321c-20.514 0-37.203-16.689-37.203-37.202 0-20.261 16.477-36.948 36.729-37.2 3.061-.038 5.935-1.475 7.801-3.9s2.52-5.572 1.772-8.54c-2.302-9.15-3.47-18.624-3.47-28.158 0-63.411 51.589-115 115-115 9.567 0 18.966 1.156 28.09 3.448-11.172 13.292-17.91 30.429-17.91 49.111 0 .882.015 1.761.045 2.637l-17.057 57.864c-3.769 12.772 15.411 18.432 19.18 5.66l8.188-27.776c11.827 20.281 32.723 34.654 57.088 37.52l-17.431 42.762c-2.681 6.578 2.158 13.775 9.26 13.775h91.315l-95.37 163.72 21.94-106.706c1.275-6.203-3.463-12.015-9.795-12.015zm162.457-73.042c0 40.275-32.767 73.042-73.042 73.042h-9.262l29.105-49.967c3.883-6.667-.926-15.033-8.641-15.033h-93.822l14.667-36.01 121.163.01c4.713 0 9.358-.298 13.917-.876 3.884 9.057 5.915 18.9 5.915 28.834zm-19.831-47.958-133.56-.011c-31.115 0-56.43-25.314-56.43-56.43s25.314-56.43 56.43-56.43c10.912 0 21.497 3.117 30.611 9.015 2.741 1.774 6.177 2.099 9.202.867 3.025-1.231 5.258-3.862 5.981-7.046 9.36-41.194 45.45-69.964 87.764-69.964 49.626 0 90 40.374 90 90s-40.373 89.999-89.998 89.999zm-220.141 50.065c0 5.523-4.477 10-10 10s-10-4.477-10-10c0-5.522 4.477-10 10-10s10 4.477 10 10z"/></g></svg>