<svg id="Capa_1" enable-background="new 0 0 508.005 508.005" height="512" viewBox="0 0 508.005 508.005" width="512" xmlns="http://www.w3.org/2000/svg"><g><g><path d="m253.02 401.096s-33.675 19.203-44.898 25.607c-15.721 8.97-23.354 27.44-18.822 44.99 5.545 21.474 27.19 33.894 48.923 28.413 17.57-4.431 29.747-20.537 29.75-38.637.002-12.921 0-51.686 0-51.686.001-7.68-7.998-12.398-14.953-8.687zm-5.046 60.369c-.001 9.044-6.121 16.985-14.876 19.309-10.661 2.823-21.636-3.551-24.464-14.207-2.32-8.761 1.546-18.011 9.401-22.493 6.25-3.566 19.459-11.1 29.94-17.077 0 12.066 0 27.273-.001 34.468z"/><path d="m153.041 401.096s-33.675 19.203-44.898 25.607c-15.721 8.97-23.354 27.44-18.822 44.99 5.545 21.474 27.19 33.894 48.923 28.413 17.57-4.431 29.747-20.537 29.75-38.637.002-12.921 0-51.686 0-51.686 0-7.68-7.999-12.398-14.953-8.687zm-5.047 60.369c-.001 9.044-6.121 16.985-14.876 19.309-10.661 2.823-21.636-3.551-24.464-14.207-2.32-8.761 1.546-18.011 9.401-22.493 6.25-3.566 19.459-11.1 29.94-17.077 0 12.066.001 27.273-.001 34.468z"/><path d="m353.02 401.096s-33.675 19.203-44.898 25.607c-15.721 8.97-23.354 27.44-18.822 44.99 5.545 21.474 27.19 33.894 48.923 28.413 17.57-4.431 29.747-20.537 29.75-38.637.002-12.921 0-51.686 0-51.686.001-7.68-7.998-12.398-14.953-8.687zm-5.046 60.369c-.001 9.044-6.121 16.985-14.876 19.309-10.661 2.823-21.636-3.551-24.464-14.207-2.32-8.761 1.546-18.011 9.401-22.493 6.25-3.566 19.459-11.1 29.94-17.077 0 12.066 0 27.273-.001 34.468z"/><circle cx="119.419" cy="45.047" r="10"/><path d="m508.005 211.607c0-59.094-47.906-107-107-107-16.603 0-32.322 3.781-46.344 10.53-20.085-62.945-79.041-108.53-148.646-108.53-17.522 0-34.37 2.889-50.092 8.216l.002.003c-12.622 4.279-6.202 23.219 6.42 18.94l-.042.096c13.78-4.716 28.535-7.271 43.851-7.255 64.664.065 118.76 45.259 132.492 105.783 1.527 6.731 9.324 9.902 15.117 6.149 13.174-8.535 28.803-13.604 45.595-13.916 47.968-.891 87.971 37.775 88.638 85.746.676 48.616-38.53 88.239-86.991 88.239h-335.926c-11.564-.012-23.124-4.44-31.932-13.287-16.89-16.963-17.494-44.662-1.313-62.302 8.799-9.593 20.678-14.478 32.614-14.656 6.486-.097 11.278-6.098 9.692-12.387-2.789-11.055-4.224-22.647-4.119-34.592.258-29.336 9.928-56.514 26.109-78.666l-.195.009c7.84-10.787-8.34-22.546-16.179-11.759-18.706 25.729-29.741 57.396-29.741 91.64 0 9.209.799 18.232 2.329 27.004-29.847 5.937-52.344 32.276-52.344 63.87 0 35.967 29.157 65.125 65.125 65.125h31.109c-4.874 2.78-9.219 5.258-12.092 6.898-15.721 8.97-23.354 27.44-18.822 44.99 5.545 21.474 27.19 33.894 48.923 28.413 17.57-4.431 29.747-20.537 29.75-38.637.002-8.732.001-29.267.001-41.664h52.26c-4.874 2.78-9.219 5.258-12.092 6.898-15.721 8.97-23.354 27.44-18.822 44.99 5.545 21.474 27.19 33.894 48.923 28.413 17.57-4.431 29.747-20.537 29.75-38.637.002-8.732.001-29.267.001-41.664h52.219c-4.874 2.78-9.219 5.258-12.092 6.898-15.721 8.97-23.354 27.44-18.822 44.99 5.545 21.474 27.19 33.894 48.923 28.413 17.57-4.431 29.747-20.537 29.75-38.637.002-8.732.001-29.267.001-41.664h52.24c-4.874 2.78-9.219 5.258-12.092 6.898-15.721 8.97-23.354 27.44-18.822 44.99 5.545 21.474 27.19 33.894 48.923 28.413 17.57-4.431 29.747-20.537 29.75-38.637.002-11.668 0-44.407 0-50.65 37.691-16.555 64.013-54.211 64.013-98.014zm-384.011 148.659c-.001 9.044-6.121 16.985-14.876 19.309-10.661 2.823-21.636-3.551-24.464-14.207-2.32-8.761 1.546-18.011 9.401-22.493 6.25-3.566 19.459-11.1 29.94-17.077 0 12.066.001 27.273-.001 34.468zm100.02 0c-.001 9.044-6.121 16.985-14.876 19.309-10.661 2.823-21.636-3.551-24.464-14.207-2.32-8.761 1.546-18.011 9.401-22.493 6.25-3.566 19.459-11.1 29.94-17.077 0 12.066.001 27.273-.001 34.468zm99.98 0c-.001 9.044-6.121 16.985-14.876 19.309-10.661 2.823-21.636-3.551-24.464-14.207-2.32-8.761 1.546-18.011 9.401-22.493 6.25-3.566 19.459-11.1 29.94-17.077 0 12.066 0 27.273-.001 34.468zm100 0c-.001 9.044-6.121 16.985-14.876 19.309-10.661 2.823-21.636-3.551-24.464-14.207-2.32-8.761 1.546-18.011 9.401-22.493 6.25-3.566 19.459-11.1 29.94-17.077 0 12.066 0 27.273-.001 34.468z"/></g></g></svg>