<svg id="Capa_1" enable-background="new 0 0 508.011 508.011" height="512" viewBox="0 0 508.011 508.011" width="512" xmlns="http://www.w3.org/2000/svg"><g><path d="m118.049 349.695c.002-12.921 0-51.684 0-51.684s-33.673 19.202-44.895 25.606c-11.529 6.578-17.671 20.301-14.112 33.739 4.25 16.013 20.677 25.555 36.692 21.313 13.436-3.567 22.313-15.701 22.315-28.974zm24 101.196c.002-12.921 0-51.684 0-51.684s-33.673 19.202-44.895 25.606c-11.529 6.578-17.671 20.301-14.112 33.739 4.25 16.013 20.677 25.555 36.692 21.313 13.436-3.567 22.313-15.701 22.315-28.974zm276-101.196c.002-12.921 0-51.684 0-51.684s-33.673 19.202-44.895 25.606c-11.529 6.578-17.671 20.301-14.112 33.739 4.25 16.013 20.677 25.555 36.692 21.313 13.436-3.567 22.313-15.701 22.315-28.974zm24 101.196c.002-12.921 0-51.684 0-51.684s-33.673 19.202-44.895 25.606c-11.529 6.578-17.671 20.301-14.112 33.739 4.25 16.013 20.677 25.555 36.692 21.313 13.436-3.567 22.313-15.701 22.315-28.974z" fill="#66e0f7"/><path d="m297.157 370.997-23.945 13.825v-27.65c0-10.583-8.807-19.161-19.162-19.161-10.354 0-19.161 8.579-19.161 19.162v27.65l-23.945-13.825c-9.165-5.291-20.884-2.151-26.175 7.014-5.292 9.165-2.151 20.884 7.014 26.175l23.945 13.825-23.945 13.825c-9.083 5.433-12.305 17.01-7.014 26.175s17.011 12.305 26.175 7.014l23.945-13.825v27.65c0 10.583 8.579 19.161 19.162 19.161s19.162-8.579 19.162-19.162v-27.649l23.945 13.825c9.165 5.292 20.884 2.151 26.175-7.014 5.292-9.165 2.151-20.884-7.014-26.175l-23.945-13.825 23.945-13.825c9.166-5.291 12.306-17.01 7.014-26.175-5.292-9.166-17.011-12.307-26.176-7.015z" fill="#ccf5fc"/><path d="m399.255 106.682c-19.162 0-37.01 5.619-51.983 15.297-14.582-64.112-72.002-111.968-140.615-111.968-79.638 0-144.197 64.471-144.197 144 0 12.161 1.51 23.969 4.352 35.249-29.755.369-53.762 24.571-53.762 54.373 0 30.032 24.379 54.378 54.452 54.378h331.753c52.906 0 95.795-42.83 95.795-95.664s-42.889-95.665-95.795-95.665z" fill="#8481e2"/><path d="m437.096 390.52s-33.675 19.203-44.898 25.607c-15.721 8.97-23.354 27.44-18.822 44.99 5.545 21.474 27.19 33.894 48.923 28.413 17.57-4.431 29.747-20.537 29.75-38.637.002-12.921 0-51.686 0-51.686 0-7.68-7.999-12.398-14.953-8.687zm-5.047 60.369c-.001 9.044-6.121 16.985-14.876 19.309-10.661 2.823-21.636-3.551-24.464-14.207-2.32-8.761 1.546-18.011 9.401-22.493 6.25-3.566 19.459-11.1 29.94-17.077 0 12.066.001 27.273-.001 34.468zm-294.974-60.369s-33.675 19.203-44.898 25.607c-15.721 8.97-23.354 27.44-18.822 44.99 5.545 21.474 27.19 33.894 48.923 28.413 17.57-4.431 29.747-20.537 29.75-38.637.002-12.921 0-51.686 0-51.686.001-7.68-7.998-12.398-14.953-8.687zm-5.046 60.369c-.001 9.044-6.121 16.985-14.876 19.309-10.661 2.823-21.636-3.551-24.464-14.207-2.32-8.761 1.546-18.011 9.401-22.493 6.25-3.566 19.459-11.1 29.94-17.077 0 12.066.001 27.273-.001 34.468zm189.453-27.512-9.363-5.406 9.259-5.346c13.87-8.008 18.728-25.563 10.615-39.615s-25.744-18.623-39.615-10.615l-9.328 5.385v-10.771c0-16.016-13.194-29-29-29s-29 12.984-29 29v10.691l-9.223-5.325c-13.87-8.008-31.502-3.437-39.615 10.615s-3.256 31.606 10.615 39.615l9.292 5.365-9.396 5.425c-13.87 8.008-18.518 25.926-10.615 39.615s25.744 18.623 39.615 10.615l9.328-5.385v10.771c0 16.016 12.774 29 29 29s29-12.984 29-29v-10.85l9.432 5.445c13.87 8.008 31.712 3.074 39.615-10.615 7.902-13.688 3.255-31.606-10.616-39.614zm-6.73 29.618c-2.435 4.218-7.99 5.78-12.294 3.294l-24.408-14.092c-6.667-3.849-15 .962-15 8.66v28.153c0 4.971-3.806 9-9 9s-9-4.029-9-9v-28.091c0-7.698-8.333-12.509-15-8.66l-24.328 14.046c-4.305 2.485-9.859.924-12.294-3.294s-1.01-9.809 3.294-12.294l24.381-14.076c6.667-3.849 6.667-13.471 0-17.32l-24.301-14.03c-4.305-2.485-5.891-7.797-3.294-12.294 2.597-4.498 7.99-5.78 12.294-3.294l24.248 13.997c6.667 3.849 15-.962 15-8.66v-28.029c0-4.971 4.129-9 9-9s9 4.029 9 9v28.091c0 7.698 8.333 12.509 15 8.66l24.328-14.046c4.305-2.485 9.697-1.204 12.294 3.294s1.01 9.809-3.294 12.294l-24.274 14.015c-6.667 3.849-6.667 13.471 0 17.32l24.354 14.061c4.305 2.486 5.73 8.077 3.294 12.295zm-234.784-383.606c0-5.522 4.476-9.998 9.998-9.998s9.999 4.477 9.999 9.998c0 5.522-4.477 9.999-9.999 9.999-5.521-.001-9.998-4.477-9.998-9.999zm319.292 27.372c-16.438 0-31.999 3.755-45.872 10.454-9.607-30.206-28.591-57.724-56.2-77.786-55.492-40.323-128.874-38.208-181.422.217-10.772 7.86.992 23.985 11.765 16.125l.016.044c45.726-33.451 109.591-35.299 157.885-.206 27.391 19.904 45.027 48.243 51.934 78.865 1.528 6.775 9.362 9.936 15.18 6.142 14.079-9.182 31.026-14.335 49.204-13.819 44.294 1.256 80.675 36.692 83.013 80.942 2.61 49.399-36.673 90.273-85.502 90.273l-334.628-.09c-22.108-1.39-40.026-19.309-41.416-41.418-1.487-23.647 17.77-47.094 43.461-47.094 6.713 0 11.743-5.936 10.096-12.443-6.149-24.289-5.491-50.177 2.467-74.542l-.18-.043c4.095-12.535-14.746-18.69-18.841-6.155-7.908 24.217-9.541 49.743-5.266 74.258-29.547 5.837-51.828 31.893-51.828 63.153 0 35.553 28.822 64.375 64.375 64.375h12.829c-4.753 2.711-9.11 5.196-12.131 6.92-15.721 8.97-23.354 27.44-18.822 44.99 5.545 21.474 27.19 33.894 48.923 28.413 17.57-4.431 29.747-20.537 29.75-38.637.002-8.737.001-29.291 0-41.686h252.259c-4.89 2.789-9.25 5.276-12.131 6.92-15.721 8.97-23.354 27.44-18.822 44.99 5.545 21.474 27.19 33.894 48.923 28.413 17.57-4.431 29.747-20.537 29.75-38.637.002-9.755.001-34.237 0-45.652 44.353-12.527 76.856-53.297 76.856-101.659 0-58.337-47.29-105.627-105.625-105.627zm-291.211 252.932c-.001 9.044-6.121 16.985-14.876 19.309-10.661 2.823-21.636-3.551-24.464-14.207-2.32-8.761 1.546-18.011 9.401-22.493 6.25-3.566 19.459-11.1 29.94-17.077 0 12.066.001 27.273-.001 34.468zm299.98 0c-.001 9.044-6.121 16.985-14.876 19.309-10.661 2.823-21.636-3.551-24.464-14.207-2.32-8.761 1.546-18.011 9.401-22.493 6.25-3.566 19.459-11.1 29.94-17.077 0 12.066.001 27.273-.001 34.468z"/></g></svg>